<?xml version="1.0" encoding="UTF-8"?>
<svg xmlns="http://www.w3.org/2000/svg" viewBox="0 0 353 204" width="353" height="204" shape-rendering="crispEdges">
<path fill="#5C23B6" d="M23 0h20v1h-20zM53 0h5v1h-5zM86 0h26v1h-26zM134 0h18v1h-18zM192 0h18v1h-18zM265 0h23v1h-23zM21 1h26v1h-26zM49 1h9v1h-9zM84 1h30v1h-30zM134 1h19v2h-19zM192 1h19v2h-19zM264 1h25v3h-25zM19 2h39v1h-39zM82 2h33v1h-33zM18 3h40v1h-40zM80 3h37v1h-37zM135 3h19v2h-19zM192 3h20v1h-20zM17 4h41v1h-41zM79 4h39v1h-39zM193 4h19v3h-19zM263 4h27v3h-27zM16 5h42v1h-42zM78 5h41v1h-41zM136 5h18v1h-18zM14 6h44v2h-44zM77 6h43v1h-43zM136 6h19v3h-19zM76 7h45v1h-45zM194 7h18v4h-18zM263 7h5v1h-5zM269 7h22v3h-22zM13 8h45v1h-45zM75 8h31v1h-31zM114 8h7v1h-7zM262 8h6v1h-6zM12 9h46v1h-46zM74 9h28v1h-28zM115 9h7v1h-7zM137 9h18v5h-18zM262 9h5v2h-5zM11 10h11v1h-11zM30 10h28v1h-28zM73 10h26v1h-26zM115 10h8v2h-8zM270 10h22v3h-22zM10 11h10v1h-10zM32 11h26v1h-26zM73 11h23v1h-23zM195 11h17v7h-17zM261 11h5v3h-5zM10 12h8v1h-8zM34 12h24v1h-24zM72 12h21v1h-21zM115 12h9v2h-9zM9 13h8v1h-8zM35 13h23v1h-23zM71 13h20v1h-20zM271 13h22v2h-22zM9 14h6v1h-6zM36 14h21v1h-21zM71 14h18v1h-18zM114 14h10v1h-10zM138 14h17v4h-17zM261 14h4v1h-4zM8 15h6v2h-6zM37 15h20v1h-20zM71 15h16v1h-16zM114 15h11v1h-11zM260 15h5v3h-5zM272 15h21v1h-21zM38 16h18v1h-18zM70 16h16v1h-16zM113 16h12v1h-12zM272 16h22v2h-22zM7 17h6v1h-6zM39 17h15v1h-15zM70 17h15v1h-15zM111 17h14v1h-14zM7 18h5v2h-5zM41 18h11v1h-11zM69 18h14v1h-14zM110 18h16v1h-16zM138 18h16v5h-16zM195 18h16v5h-16zM259 18h5v3h-5zM273 18h21v1h-21zM69 19h13v1h-13zM108 19h18v1h-18zM273 19h22v2h-22zM6 20h5v2h-5zM69 20h12v1h-12zM106 20h20v1h-20zM68 21h13v1h-13zM105 21h21v1h-21zM258 21h6v1h-6zM274 21h21v1h-21zM6 22h4v3h-4zM68 22h12v1h-12zM104 22h22v1h-22zM258 22h5v3h-5zM274 22h22v2h-22zM68 23h11v1h-11zM103 23h23v1h-23zM138 23h15v4h-15zM195 23h15v3h-15zM68 24h10v1h-10zM102 24h25v2h-25zM274 24h23v1h-23zM5 25h4v10h-4zM67 25h11v1h-11zM257 25h6v4h-6zM275 25h22v2h-22zM67 26h10v2h-10zM101 26h26v1h-26zM195 26h14v3h-14zM100 27h27v3h-27zM138 27h14v3h-14zM275 27h23v1h-23zM67 28h9v2h-9zM272 28h26v1h-26zM194 29h15v1h-15zM256 29h7v2h-7zM269 29h29v1h-29zM67 30h8v5h-8zM99 30h28v3h-28zM137 30h14v3h-14zM194 30h14v3h-14zM267 30h32v1h-32zM256 31h43v1h-43zM255 32h17v1h-17zM277 32h22v1h-22zM99 33h27v2h-27zM137 33h13v2h-13zM194 33h13v1h-13zM255 33h15v1h-15zM278 33h22v3h-22zM193 34h14v1h-14zM255 34h13v1h-13zM5 35h5v3h-5zM67 35h7v7h-7zM98 35h28v4h-28zM136 35h13v3h-13zM193 35h13v3h-13zM255 35h12v1h-12zM254 36h13v1h-13zM279 36h22v3h-22zM56 37h3v1h-3zM254 37h12v2h-12zM6 38h4v1h-4zM55 38h4v1h-4zM136 38h12v2h-12zM192 38h13v2h-13zM6 39h5v2h-5zM53 39h6v1h-6zM98 39h27v4h-27zM253 39h13v1h-13zM280 39h22v3h-22zM52 40h7v1h-7zM135 40h12v3h-12zM192 40h12v3h-12zM253 40h14v3h-14zM6 41h6v1h-6zM50 41h9v1h-9zM6 42h7v1h-7zM48 42h11v1h-11zM68 42h6v2h-6zM281 42h22v3h-22zM7 43h7v1h-7zM46 43h13v1h-13zM98 43h26v1h-26zM135 43h11v1h-11zM191 43h12v2h-12zM252 43h16v3h-16zM7 44h8v1h-8zM44 44h15v1h-15zM68 44h7v3h-7zM99 44h25v2h-25zM134 44h12v1h-12zM170 44h11v1h-11zM227 44h11v1h-11zM7 45h9v1h-9zM42 45h17v1h-17zM134 45h11v3h-11zM167 45h16v1h-16zM191 45h11v3h-11zM224 45h16v1h-16zM282 45h22v3h-22zM8 46h10v1h-10zM38 46h21v1h-21zM99 46h24v2h-24zM164 46h20v1h-20zM221 46h20v1h-20zM251 46h18v2h-18zM8 47h13v1h-13zM34 47h25v1h-25zM69 47h6v1h-6zM162 47h23v1h-23zM219 47h23v1h-23zM8 48h51v1h-51zM69 48h7v2h-7zM100 48h22v2h-22zM133 48h11v3h-11zM161 48h24v1h-24zM191 48h10v4h-10zM218 48h24v1h-24zM251 48h19v2h-19zM283 48h22v2h-22zM9 49h50v1h-50zM159 49h26v1h-26zM216 49h26v1h-26zM10 50h49v2h-49zM70 50h7v2h-7zM100 50h21v1h-21zM158 50h27v1h-27zM215 50h27v1h-27zM250 50h21v2h-21zM283 50h23v1h-23zM100 51h20v1h-20zM133 51h10v4h-10zM157 51h28v1h-28zM214 51h28v1h-28zM284 51h22v2h-22zM11 52h48v1h-48zM71 52h7v2h-7zM100 52h19v2h-19zM156 52h29v1h-29zM191 52h9v2h-9zM212 52h30v1h-30zM250 52h22v2h-22zM12 53h47v2h-47zM154 53h31v1h-31zM211 53h31v1h-31zM285 53h22v3h-22zM72 54h7v1h-7zM100 54h18v1h-18zM153 54h32v1h-32zM191 54h10v2h-10zM210 54h32v1h-32zM249 54h24v2h-24zM13 55h46v1h-46zM72 55h8v1h-8zM100 55h17v1h-17zM134 55h9v1h-9zM152 55h33v1h-33zM209 55h33v1h-33zM14 56h45v1h-45zM73 56h8v1h-8zM99 56h17v1h-17zM134 56h10v1h-10zM151 56h34v1h-34zM192 56h10v1h-10zM208 56h34v1h-34zM249 56h25v2h-25zM286 56h22v3h-22zM16 57h42v1h-42zM74 57h8v1h-8zM98 57h16v1h-16zM135 57h10v1h-10zM149 57h36v1h-36zM192 57h11v1h-11zM206 57h36v1h-36zM17 58h40v1h-40zM75 58h9v1h-9zM97 58h16v1h-16zM135 58h50v1h-50zM193 58h49v1h-49zM248 58h27v2h-27zM18 59h37v1h-37zM76 59h11v1h-11zM95 59h16v1h-16zM136 59h49v1h-49zM194 59h48v1h-48zM287 59h22v2h-22zM20 60h33v1h-33zM78 60h32v1h-32zM137 60h48v1h-48zM195 60h47v1h-47zM248 60h28v2h-28zM23 61h28v1h-28zM80 61h28v1h-28zM139 61h46v1h-46zM196 61h46v1h-46zM288 61h21v1h-21zM25 62h23v1h-23zM82 62h23v1h-23zM141 62h21v1h-21zM179 62h5v1h-5zM198 62h22v1h-22zM236 62h6v1h-6zM249 62h26v1h-26zM289 62h19v1h-19zM30 63h13v1h-13zM85 63h16v1h-16zM145 63h9v1h-9zM202 63h10v1h-10zM7 69h31v1h-31zM65 69h1v1h-1zM67 69h10v1h-10zM90 69h3v1h-3zM124 69h12v1h-12zM165 69h19v1h-19zM213 69h12v1h-12zM246 69h12v1h-12zM269 69h12v1h-12zM288 69h18v1h-18zM6 70h38v1h-38zM64 70h37v1h-37zM123 70h14v1h-14zM161 70h27v1h-27zM211 70h15v1h-15zM245 70h14v1h-14zM267 70h41v1h-41zM5 71h41v1h-41zM63 71h40v1h-40zM122 71h16v52h-16zM159 71h31v1h-31zM211 71h16v24h-16zM244 71h16v17h-16zM267 71h42v1h-42zM5 72h42v1h-42zM63 72h42v1h-42zM157 72h15v1h-15zM178 72h14v1h-14zM267 72h43v10h-43zM5 73h19v1h-19zM28 73h20v1h-20zM63 73h43v1h-43zM155 73h15v1h-15zM180 73h13v1h-13zM5 74h16v46h-16zM32 74h17v1h-17zM63 74h16v49h-16zM86 74h21v1h-21zM154 74h14v1h-14zM181 74h14v1h-14zM33 75h17v1h-17zM89 75h18v1h-18zM152 75h15v1h-15zM182 75h14v1h-14zM34 76h16v1h-16zM90 76h18v1h-18zM151 76h16v1h-16zM182 76h15v1h-15zM35 77h15v2h-15zM91 77h17v1h-17zM150 77h16v1h-16zM183 77h15v2h-15zM91 78h18v1h-18zM150 78h15v1h-15zM35 79h16v2h-16zM92 79h17v6h-17zM149 79h16v1h-16zM183 79h16v1h-16zM148 80h16v2h-16zM184 80h16v2h-16zM35 81h15v3h-15zM147 82h17v1h-17zM184 82h17v5h-17zM269 82h21v1h-21zM305 82h4v1h-4zM147 83h16v1h-16zM281 83h7v1h-7zM34 84h16v1h-16zM146 84h17v3h-17zM280 84h7v1h-7zM34 85h15v1h-15zM92 85h16v2h-16zM280 85h6v2h-6zM33 86h15v1h-15zM32 87h16v1h-16zM91 87h17v1h-17zM145 87h18v1h-18zM185 87h1v1h-1zM280 87h5v3h-5zM31 88h15v1h-15zM90 88h17v1h-17zM145 88h17v5h-17zM237 88h23v1h-23zM30 89h15v1h-15zM90 89h16v1h-16zM235 89h25v1h-25zM28 90h15v1h-15zM89 90h17v1h-17zM233 90h27v1h-27zM281 90h5v2h-5zM26 91h14v1h-14zM87 91h17v1h-17zM231 91h29v1h-29zM25 92h8v1h-8zM86 92h17v1h-17zM230 92h30v1h-30zM281 92h6v1h-6zM24 93h5v1h-5zM34 93h7v1h-7zM84 93h17v1h-17zM144 93h18v7h-18zM229 93h10v1h-10zM242 93h18v1h-18zM281 93h7v1h-7zM23 94h5v1h-5zM31 94h15v1h-15zM83 94h15v1h-15zM228 94h8v1h-8zM243 94h17v1h-17zM282 94h7v1h-7zM23 95h4v1h-4zM30 95h19v1h-19zM82 95h11v1h-11zM175 95h29v1h-29zM211 95h23v1h-23zM244 95h16v28h-16zM282 95h8v1h-8zM22 96h5v1h-5zM29 96h22v1h-22zM81 96h4v1h-4zM174 96h31v1h-31zM211 96h22v1h-22zM282 96h10v1h-10zM22 97h30v1h-30zM80 97h13v1h-13zM173 97h32v1h-32zM211 97h21v1h-21zM283 97h10v1h-10zM23 98h30v1h-30zM80 98h16v1h-16zM173 98h11v1h-11zM186 98h19v1h-19zM211 98h19v1h-19zM283 98h11v1h-11zM23 99h31v1h-31zM80 99h18v1h-18zM173 99h9v1h-9zM187 99h18v1h-18zM211 99h18v1h-18zM283 99h13v1h-13zM24 100h31v1h-31zM80 100h20v1h-20zM145 100h17v1h-17zM173 100h7v1h-7zM188 100h17v7h-17zM211 100h17v1h-17zM283 100h14v1h-14zM25 101h31v1h-31zM80 101h21v1h-21zM145 101h18v4h-18zM173 101h5v1h-5zM211 101h16v22h-16zM284 101h13v1h-13zM27 102h29v1h-29zM81 102h22v1h-22zM174 102h2v1h-2zM284 102h14v1h-14zM35 103h22v1h-22zM82 103h22v1h-22zM284 103h15v1h-15zM38 104h19v1h-19zM83 104h22v1h-22zM284 104h16v2h-16zM40 105h17v1h-17zM84 105h22v1h-22zM146 105h17v1h-17zM41 106h16v1h-16zM86 106h21v1h-21zM146 106h18v2h-18zM284 106h17v2h-17zM42 107h16v2h-16zM87 107h20v1h-20zM188 107h16v2h-16zM89 108h19v1h-19zM147 108h17v1h-17zM284 108h18v4h-18zM42 109h15v1h-15zM90 109h18v1h-18zM147 109h18v1h-18zM188 109h15v1h-15zM43 110h14v4h-14zM91 110h18v2h-18zM148 110h17v2h-17zM187 110h16v1h-16zM187 111h15v1h-15zM92 112h18v1h-18zM149 112h17v1h-17zM186 112h16v1h-16zM284 112h19v4h-19zM93 113h17v1h-17zM150 113h16v1h-16zM186 113h15v1h-15zM42 114h14v2h-14zM93 114h18v1h-18zM150 114h17v1h-17zM185 114h15v1h-15zM94 115h18v2h-18zM151 115h17v1h-17zM185 115h14v1h-14zM41 116h14v1h-14zM152 116h16v1h-16zM184 116h14v1h-14zM283 116h20v2h-20zM41 117h13v1h-13zM95 117h18v1h-18zM153 117h16v1h-16zM183 117h14v1h-14zM40 118h13v1h-13zM95 118h19v1h-19zM154 118h17v1h-17zM181 118h15v1h-15zM283 118h19v2h-19zM38 119h14v1h-14zM96 119h19v1h-19zM156 119h17v1h-17zM179 119h16v1h-16zM5 120h19v1h-19zM36 120h15v1h-15zM96 120h20v1h-20zM157 120h36v1h-36zM282 120h20v2h-20zM5 121h44v1h-44zM97 121h20v1h-20zM159 121h32v1h-32zM5 122h42v1h-42zM98 122h19v1h-19zM161 122h28v1h-28zM282 122h19v1h-19zM6 123h38v1h-38zM64 123h14v1h-14zM99 123h17v1h-17zM123 123h14v1h-14zM164 123h21v1h-21zM212 123h14v1h-14zM245 123h14v1h-14zM282 123h18v1h-18zM169 124h12v1h-12z"></path>
</svg>